<?xml version="1.0" encoding="utf-8"?>
<!-- Generator: Adobe Illustrator 25.2.3, SVG Export Plug-In . SVG Version: 6.00 Build 0)  -->
<svg version="1.1" id="Capa_1" xmlns="http://www.w3.org/2000/svg" xmlns:xlink="http://www.w3.org/1999/xlink" x="0px" y="0px"
	 viewBox="0 0 200 200" style="enable-background:new 0 0 200 200;" xml:space="preserve">
<style type="text/css">
	.st0{fill:#A35CCD;}
</style>
<g>
	<path class="st0" d="M144,29.6L144,29.6c-1.2-1.2-2.8-1.9-4.4-1.9H34.1c-3.5,0-6.3,2.8-6.3,6.3v131.8c0,3.5,2.8,6.3,6.3,6.3h131.8
		c3.5,0,6.3-2.8,6.3-6.3V60.5c0-1.6-0.7-3.2-1.9-4.4L144,29.6z M40.4,40.5h96.4l22.6,22.6v96.4h-119V40.5z"/>
	<path class="st0" d="M73.7,102.6c-3.5,0-6.3,2.8-6.3,6.3c0,1.3-1,2.3-2.3,2.3c-1.3,0-2.3-1-2.3-2.3V91.2l0-0.3
		c-0.1-0.6,0.2-1,0.4-1.3c0.4-0.5,1.1-0.8,1.8-0.8c1.3,0,2.3,1,2.3,2.3c0,3.5,2.8,6.3,6.3,6.3s6.3-2.8,6.3-6.3
		c0.1-4-1.5-7.8-4.3-10.6c-2.9-2.9-6.7-4.5-10.7-4.5c-8.4,0-15.2,6.8-15.2,15.2v17.7c0,8.4,6.8,15.2,15.2,15.2S80,117.3,80,108.9
		C80,105.4,77.2,102.6,73.7,102.6z"/>
	<path class="st0" d="M100.1,76h-8.8c-3.5,0-6.3,2.8-6.3,6.3v35.2c0,3.5,2.8,6.3,6.3,6.3s6.3-2.8,6.3-6.3v-11.2h2.3
		c8.4,0,15.2-6.8,15.2-15.2c0.1-4-1.5-7.8-4.3-10.6C107.9,77.6,104.1,76,100.1,76z M102.2,91.4c0,0.6-0.2,1.2-0.6,1.6
		c-0.4,0.4-1,0.7-1.5,0.7h-2.5v-4.8h2.3c1.3,0,2.3,1,2.3,2.3L102.2,91.4z"/>
	<path class="st0" d="M144.2,76.2c-3.5,0-6.3,2.8-6.3,6.3v26.3c0,1.3-1,2.3-2.4,2.3c-0.8,0-1.6-0.2-2.2-0.8c-0.4-0.4-0.7-1-0.7-1.5
		V82.5c0-3.5-2.8-6.3-6.3-6.3c-3.5,0-6.3,2.8-6.3,6.3v26.3c0,8.4,6.8,15.2,15.2,15.2s15.2-6.8,15.2-15.2V82.5
		C150.5,79,147.7,76.2,144.2,76.2z"/>
	<path class="st0" d="M192.4,49.4c3.5,0,6.3-2.8,6.3-6.3V20.9c0-10.9-8.8-19.7-19.7-19.7h-22c-3.5,0-6.3,2.8-6.3,6.3
		c0,1.3-1,2.3-2.3,2.3s-2.3-1-2.3-2.3c0-3.5-2.8-6.3-6.3-6.3H20.9C10,1.2,1.2,10,1.2,20.9v22c0,3.5,2.8,6.3,6.3,6.3
		c1.3,0,2.3,1,2.3,2.3s-1,2.3-2.3,2.3c-3.5,0-6.3,2.8-6.3,6.3V179c0,10.9,8.8,19.7,19.7,19.7H179c10.9,0,19.7-8.8,19.7-19.7V60.5
		c0-3.5-2.8-6.3-6.3-6.3c-1.3,0-2.3-1-2.3-2.3l0-0.2c-0.1-0.8,0.3-1.3,0.5-1.6C191.1,49.7,191.7,49.4,192.4,49.4z M185.9,179.2
		c0,3.7-3.1,6.8-6.8,6.8H20.9c-3.7,0-6.8-3.1-6.8-6.8V65.3c5.3-2.5,8.8-7.8,8.8-13.7s-3.5-11.3-8.8-13.7v-17c0-3.7,3.1-6.8,6.8-6.8
		h113.8c2.5,5.3,7.8,8.8,13.7,8.8c5.9,0,11.3-3.5,13.7-8.8h17c3.7,0,6.8,3.1,6.8,6.8v17c-5.3,2.5-8.8,7.8-8.8,13.7
		s3.5,11.3,8.8,13.7V179.2z"/>
</g>
</svg>
