<?xml version="1.0" encoding="utf-8"?>
<!-- Generator: Adobe Illustrator 25.2.3, SVG Export Plug-In . SVG Version: 6.00 Build 0)  -->
<svg version="1.1" id="Capa_1" xmlns="http://www.w3.org/2000/svg" xmlns:xlink="http://www.w3.org/1999/xlink" x="0px" y="0px"
	 viewBox="0 0 200 200" style="enable-background:new 0 0 200 200;" xml:space="preserve">
<style type="text/css">
	.st0{fill:#FD578B;}
</style>
<path class="st0" d="M92.3,190.8c0,4.3,3.4,7.7,7.7,7.7s7.7-3.4,7.7-7.7v-22.6h14.9v22.6c0,4.3,3.4,7.7,7.7,7.7s7.7-3.4,7.7-7.7
	v-22.6h22.6c4.3,0,7.7-3.4,7.7-7.7V138h22.6c4.3,0,7.7-3.4,7.7-7.7s-3.4-7.7-7.7-7.7h-22.6v-14.9h22.6c4.3,0,7.7-3.4,7.7-7.7
	s-3.4-7.7-7.7-7.7h-22.6V77.4h22.6c4.3,0,7.7-3.4,7.7-7.7c0-4.3-3.4-7.7-7.7-7.7h-22.6V39.5c0-4.3-3.4-7.7-7.7-7.7H138V9.2
	c0-4.3-3.4-7.7-7.7-7.7c-4.2,0-7.7,3.4-7.7,7.7v22.6h-14.9V9.2c0-4.3-3.4-7.7-7.7-7.7s-7.7,3.4-7.7,7.7v22.6H77.4V9.2
	c0-4.3-3.4-7.7-7.7-7.7c-4.3,0-7.7,3.4-7.7,7.7v22.6H39.5c-4.2,0-7.7,3.4-7.7,7.7V62H9.2c-4.3,0-7.7,3.4-7.7,7.7
	c0,4.2,3.4,7.7,7.7,7.7h22.6v14.9H9.2c-4.3,0-7.7,3.4-7.7,7.7s3.4,7.7,7.7,7.7h22.6v14.9H9.2c-4.3,0-7.7,3.4-7.7,7.7
	c0,4.3,3.4,7.7,7.7,7.7h22.6v22.6c0,4.3,3.4,7.7,7.7,7.7H62v22.6c0,4.3,3.4,7.7,7.7,7.7c4.2,0,7.7-3.4,7.7-7.7v-22.6h14.9
	C92.3,168.3,92.3,190.8,92.3,190.8z M47.2,152.8V47.2h105.7v105.7L47.2,152.8L47.2,152.8z"/>
</svg>
