<?xml version="1.0" encoding="utf-8"?>
<!-- Generator: Adobe Illustrator 25.2.3, SVG Export Plug-In . SVG Version: 6.00 Build 0)  -->
<svg version="1.1" id="Capa_1" xmlns="http://www.w3.org/2000/svg" xmlns:xlink="http://www.w3.org/1999/xlink" x="0px" y="0px"
	 viewBox="0 0 200 200" style="enable-background:new 0 0 200 200;" xml:space="preserve">
<style type="text/css">
	.st0{fill:#F29659;}
</style>
<g>
	<path class="st0" d="M71.2,8.7v12.6H64c-9.5,0-17.3,7.7-17.3,17.3v144.1c-0.1,9.6,7.7,17.3,17.2,17.3h72.2
		c9.5,0,17.3-7.7,17.3-17.3V38.5c0-9.5-7.7-17.3-17.3-17.3h-7.6V8.6c0-4.8-3.9-8.6-8.7-8.6h-40C75,0,71.2,3.9,71.2,8.7z M136.1,38.5
		v144.2H63.9V38.5H136.1L136.1,38.5z"/>
	<path class="st0" d="M123.1,165.7V55c0-2-1.6-3.6-3.6-3.6h-39c-2,0-3.6,1.6-3.6,3.6v110.7c0,2,1.6,3.6,3.6,3.6h39
		C121.5,169.4,123.1,167.8,123.1,165.7z"/>
</g>
</svg>
