<?xml version="1.0" encoding="utf-8"?>
<!-- Generator: Adobe Illustrator 25.2.3, SVG Export Plug-In . SVG Version: 6.00 Build 0)  -->
<svg version="1.1" id="Capa_1" xmlns="http://www.w3.org/2000/svg" xmlns:xlink="http://www.w3.org/1999/xlink" x="0px" y="0px"
	 viewBox="0 0 200 200" style="enable-background:new 0 0 200 200;" xml:space="preserve">
<style type="text/css">
	.st0{fill:#FFC131;}
</style>
<g>
	<path class="st0" d="M166.7,33.3c4.6,0,8.3-3.7,8.3-8.3s-3.7-8.3-8.3-8.3h-8.3V8.3c0-4.6-3.7-8.3-8.3-8.3H33.3
		C28.7,0,25,3.7,25,8.3s3.7,8.3,8.3,8.3H50v166.7H33.3c-4.6,0-8.3,3.7-8.3,8.3s3.7,8.3,8.3,8.3H150c4.6,0,8.3-3.7,8.3-8.3v-8.3h8.3
		c4.6,0,8.3-3.7,8.3-8.3s-3.7-8.3-8.3-8.3h-8.3v-8.3h8.3c4.6,0,8.3-3.7,8.3-8.3s-3.7-8.3-8.3-8.3h-8.3v-33.3h8.3
		c4.6,0,8.3-3.7,8.3-8.3c0-4.6-3.7-8.3-8.3-8.3h-8.3v-8.3h8.3c4.6,0,8.3-3.7,8.3-8.3s-3.7-8.3-8.3-8.3h-8.3v-8.3h8.3
		c4.6,0,8.3-3.7,8.3-8.3s-3.7-8.3-8.3-8.3h-8.3v-8.3L166.7,33.3z M141.7,183.3H125v-16.7c0-4.6-3.7-8.3-8.3-8.3s-8.3,3.7-8.3,8.3
		v16.7H66.7V16.6h41.7v116.7c0,4.6,3.7,8.3,8.3,8.3c4.6,0,8.3-3.7,8.3-8.3V16.6h16.7V183.3z"/>
	<g>
		<path class="st0" d="M90.2,154.2v3.2h10.5c1.4,0,2.4,0.4,3,1.3c0.7,0.8,1,1.9,1,3.3c0,1.5-0.3,2.6-1,3.4c-0.7,0.8-1.7,1.2-3,1.2
			H75.6c-1.4,0-2.4-0.4-3.1-1.3c-0.6-0.9-1-2.3-1-4.3v-14.9c0-2.1,0.1-3.8,0.2-5.3s0.4-2.8,0.8-3.9c0.4-1.4,1-2.7,1.9-3.8
			c0.8-1.1,1.7-1.9,2.8-2.5c1.1-0.6,2.2-0.9,3.4-0.9c2.4,0,4.4,1,5.8,2.9c1.5,1.9,2.5,4.8,3.1,8.7c0.6-1.6,1.5-3.2,2.8-4.7
			c1.2-1.5,2.5-2.8,3.9-4s2.6-2.1,3.7-2.7c1.1-0.6,1.9-1,2.3-1s0.9,0.2,1.3,0.6c0.4,0.4,0.8,0.9,1,1.6c0.2,0.7,0.4,1.4,0.4,2.3
			c0,1-0.2,1.9-0.5,2.6c-0.3,0.7-0.8,1.3-1.3,1.8s-1.3,1.2-2.4,2.1l-4.4,3.7c-1.6,1.3-2.8,2.5-3.7,3.5c-0.8,1-1.4,2.1-1.7,3.2
			C90.4,151.2,90.2,152.6,90.2,154.2z M76.5,149v8.5h9v-8.2c0-2.2-0.1-4.1-0.4-5.6s-0.7-2.7-1.4-3.4c-0.7-0.8-1.6-1.2-2.7-1.2
			c-0.9,0-1.7,0.3-2.4,1c-0.7,0.6-1.2,1.5-1.5,2.7C76.7,143.7,76.5,145.8,76.5,149z"/>
		<path class="st0" d="M100.5,92.1l-4.1,2.2v18.4l4.2,2.2c1.6,0.8,2.7,1.6,3.3,2.2c0.6,0.6,0.9,1.6,0.9,2.9c0,1.1-0.3,2.2-0.9,3.1
			s-1.3,1.3-2.1,1.3c-0.4,0-0.9-0.1-1.4-0.3c-0.5-0.2-1.1-0.5-2-1l-21.2-11.6c-0.6-0.3-1.3-0.7-2.2-1.2c-0.9-0.5-1.6-1-2.1-1.5
			c-0.6-0.5-1-1.2-1.4-2.1c-0.3-0.9-0.5-1.9-0.5-3.2c0-1.3,0.2-2.3,0.5-3.2c0.4-0.9,0.8-1.5,1.3-2.1c0.6-0.5,1.1-1,1.8-1.3
			c0.6-0.4,1.5-0.8,2.5-1.4l21-11.8c1.6-0.9,2.8-1.4,3.5-1.4c0.8,0,1.4,0.4,2.1,1.3c0.6,0.9,0.9,1.9,0.9,3.2c0,0.7-0.1,1.3-0.3,1.9
			c-0.2,0.5-0.4,0.9-0.8,1.3c-0.3,0.3-0.8,0.7-1.5,1.1C101.6,91.5,101,91.8,100.5,92.1z M91.4,110.3V96.8L78,103.6L91.4,110.3z"/>
		<path class="st0" d="M99.3,60.4l-20.8,7.2H101c1.2,0,2.2,0.4,2.8,1.2s0.9,1.8,0.9,3.1c0,1.2-0.3,2.2-0.9,3s-1.6,1.2-2.8,1.2H75.2
			c-1.4,0-2.4-0.5-2.9-1.5s-0.7-2.4-0.7-4.2v-2.8c0-1.7,0.1-2.9,0.3-3.7c0.2-0.8,0.6-1.3,1.2-1.7s1.5-0.8,2.8-1.3l17.8-6.6
			l-17.8-6.6c-1.3-0.5-2.2-0.9-2.8-1.3c-0.6-0.4-1-0.9-1.2-1.7s-0.3-2-0.3-3.7v-2.8c0-1.8,0.2-3.1,0.7-4.2c0.5-1,1.5-1.5,2.9-1.5
			H101c1.2,0,2.2,0.4,2.8,1.2c0.6,0.8,0.9,1.8,0.9,3.1c0,1.2-0.3,2.2-0.9,3S102.2,41,101,41H78.5l20.8,7.3c1.3,0.5,2.3,0.9,3,1.2
			c0.6,0.3,1.2,0.8,1.7,1.6s0.8,1.9,0.8,3.3c0,1.1-0.2,2-0.5,2.7s-0.8,1.3-1.3,1.7s-1.1,0.7-1.7,1C100.6,59.9,99.9,60.1,99.3,60.4z"
			/>
	</g>
</g>
</svg>
