<?xml version="1.0" encoding="utf-8"?>
<!-- Generator: Adobe Illustrator 25.2.3, SVG Export Plug-In . SVG Version: 6.00 Build 0)  -->
<svg version="1.1" id="Capa_1" xmlns="http://www.w3.org/2000/svg" xmlns:xlink="http://www.w3.org/1999/xlink" x="0px" y="0px"
	 viewBox="0 0 200 200" style="enable-background:new 0 0 200 200;" xml:space="preserve">
<style type="text/css">
	.st0{fill:#FF4A83;}
	.st1{fill:#FFFFFF;}
</style>
<g>
	<circle class="st0" cx="98.8" cy="100" r="100"/>
</g>
<g>
	<path class="st1" d="M126.5,52.4c-0.7-0.7-1.6-1.1-2.6-1.1H61c-2,0-3.6,1.6-3.6,3.6v78.7c0,2,1.6,3.6,3.6,3.6h78.7
		c2,0,3.6-1.6,3.6-3.6v-63c0-1-0.4-1.9-1.1-2.6L126.5,52.4z M136.1,72.2V130H64.6V58.5h57.8L136.1,72.2z"/>
	<path class="st1" d="M79.4,87.4c0.9,0,1.6,0.7,1.6,1.6c0,2,1.6,3.6,3.6,3.6s3.6-1.6,3.6-3.6c0-4.9-4-8.9-8.9-8.9s-8.9,4-8.9,8.9
		v10.5c0,4.9,4,8.9,8.9,8.9s8.9-4,8.9-8.9c0-2-1.6-3.6-3.6-3.6S81,97.5,81,99.5c0,0.9-0.7,1.6-1.6,1.6s-1.6-0.7-1.6-1.6V89
		C77.7,88.1,78.5,87.4,79.4,87.4z"/>
	<path class="st1" d="M100.3,80.2h-5.2c-2,0-3.6,1.6-3.6,3.6v21c0,2,1.6,3.6,3.6,3.6s3.6-1.6,3.6-3.6v-6.9h1.6c4.9,0,8.9-4,8.9-8.9
		S105.2,80.2,100.3,80.2z M102,89c0,0.9-0.7,1.6-1.6,1.6h-1.6v-3.2h1.6C101.2,87.4,102,88.1,102,89z"/>
	<path class="st1" d="M119.7,99.5V83.8c0-2-1.6-3.6-3.6-3.6s-3.6,1.6-3.6,3.6v15.7c0,4.9,4,8.9,8.9,8.9s8.9-4,8.9-8.9V83.8
		c0-2-1.6-3.6-3.6-3.6s-3.6,1.6-3.6,3.6v15.7c0,0.9-0.7,1.6-1.6,1.6S119.7,100.4,119.7,99.5z"/>
	<path class="st1" d="M155.4,63.8c2,0,3.6-1.6,3.6-3.6V47c0-6.3-5.2-11.5-11.5-11.5h-13.1c-2,0-3.6,1.6-3.6,3.6
		c0,0.9-0.7,1.6-1.6,1.6c-0.9,0-1.6-0.7-1.6-1.6c0-2-1.6-3.6-3.6-3.6H53.1c-6.3,0-11.5,5.2-11.5,11.5v13.1c0,2,1.6,3.6,3.6,3.6
		c0.9,0,1.6,0.7,1.6,1.6s-0.7,1.6-1.6,1.6l0,0c-1,0-1.9,0.4-2.6,1.1s-1.1,1.6-1.1,2.6v70.8c0,6.3,5.2,11.5,11.5,11.5h94.5
		c6.3,0,11.5-5.2,11.5-11.5V70.7c0-2-1.6-3.6-3.6-3.6c-0.9,0-1.6-0.7-1.6-1.6S154.6,63.8,155.4,63.8z M151.8,141.5
		c0,2.3-1.9,4.2-4.2,4.2H53.1c-2.3,0-4.2-1.9-4.2-4.2v-68c3.2-1.4,5.2-4.6,5.2-8.1s-2.1-6.7-5.2-8.1V47c0-2.3,1.9-4.2,4.2-4.2h68
		c1.4,3.2,4.6,5.2,8.1,5.2s6.7-2.1,8.1-5.2h10.3c2.3,0,4.2,1.9,4.2,4.2v10.3c-3.2,1.4-5.2,4.6-5.2,8.1c0,3.5,2.1,6.7,5.2,8.1V141.5z
		"/>
</g>
</svg>
