<?xml version="1.0" encoding="utf-8"?>
<!-- Generator: Adobe Illustrator 25.2.0, SVG Export Plug-In . SVG Version: 6.00 Build 0)  -->
<svg version="1.1" id="Capa_1" xmlns="http://www.w3.org/2000/svg" xmlns:xlink="http://www.w3.org/1999/xlink" x="0px" y="0px"
	 viewBox="0 0 200 200" style="enable-background:new 0 0 200 200;" xml:space="preserve">
<style type="text/css">
	.st0{fill:#FFC232;}
	.st1{fill:#FFFFFF;}
</style>
<g>
	<circle class="st0" cx="100" cy="100" r="100"/>
</g>
<g>
	<path class="st1" d="M125.2,83.8c0.7-0.5,1.1-0.9,1.4-1.2c0.3-0.3,0.4-0.8,0.4-1.3c0-0.6-0.2-1-0.5-1.3c-0.3-0.3-0.7-0.4-1.2-0.4
		c-0.6,0-1,0.2-1.3,0.5c-0.3,0.3-0.5,0.8-0.5,1.3c0,0.4,0.1,0.8,0.4,1.1C124.2,82.8,124.7,83.3,125.2,83.8z"/>
	<path class="st1" d="M122.1,97.5c0,0.4,0.1,0.8,0.2,1.2c0.1,0.4,0.4,0.9,0.7,1.2c0.3,0.4,0.8,0.7,1.3,1c0.6,0.3,1.2,0.4,2,0.4
		c1,0,1.9-0.2,2.9-0.6l-5.5-5.9C122.6,95.7,122.1,96.6,122.1,97.5z"/>
	<polygon class="st1" points="74.5,92.9 77.5,92.9 78.5,88.6 75.5,88.6 	"/>
	<path class="st1" d="M103,37.1c-34.4,0-65,23.5-65,55.3c0,11.6,4.1,22.7,12,32.1l-6.8,26.1c-1,3.9,2.7,7.3,6.5,6.1l34.4-11.2
		c6.1,1.6,12.4,2.4,18.8,2.4c34.4,0,65-23.5,65-55.3C168,60.3,137.1,37.1,103,37.1z M93.6,88.6h-7.8l-1,4.3h6.3v6.9h-7.9l-2,8.3
		h-7.4l2.1-8.3h-2.9l-2,8.3h-7.4l2.1-8.3h-5.5v-6.9h7.2l1-4.3h-5.6v-6.4h7.2l2.2-9h7.4l-2.3,9H80l2.2-9h7.4l-2.3,9h6.2V88.6z
		 M108.1,108.1h-9.3v-9h9.3V108.1z M108.1,93.4h-9.3V73h9.3V93.4z M136.2,108.1l-1.9-2c-1.4,0.8-2.9,1.5-4.4,1.9
		c-1.5,0.4-3,0.6-4.6,0.6c-2,0-3.8-0.3-5.3-1c-1.5-0.7-2.8-1.5-3.8-2.5c-1-1-1.8-2.2-2.3-3.6c-0.5-1.3-0.8-2.7-0.8-4
		c0-2,0.5-3.7,1.4-5.2c1-1.5,2.1-2.7,3.5-3.8c-1-1.3-1.8-2.4-2.2-3.4c-0.4-1-0.6-2.1-0.6-3.3c0-1.4,0.3-2.7,0.8-3.8
		c0.5-1.1,1.2-2.1,2.1-2.8c0.9-0.8,2-1.3,3.2-1.7c1.2-0.4,2.6-0.6,4.1-0.6c1.3,0,2.5,0.2,3.7,0.5c1.2,0.3,2.3,0.8,3.3,1.5
		c1,0.7,1.7,1.5,2.3,2.6c0.6,1.1,0.9,2.3,0.9,3.8c0,1.8-0.4,3.3-1.2,4.8c-0.8,1.4-1.9,2.7-3.3,3.9l4,4.3c0.4-0.9,0.6-1.9,0.8-3
		c0.2-1.1,0.3-2.2,0.3-3.5h7.5c0,2.5-0.3,4.8-0.9,6.8c-0.6,2-1.3,3.8-2.3,5.4l7.8,8.2H136.2z"/>
</g>
</svg>
